<?xml version="1.0" encoding="UTF-8" standalone="no"?>
<!-- Created with Inkscape (http://www.inkscape.org/) -->

<svg
   width="210mm"
   height="297mm"
   viewBox="0 0 210 297"
   version="1.1"
   id="svg5"
   inkscape:version="1.2.2 (b0a8486541, 2022-12-01)"
   sodipodi:docname="drawing.svg"
   xmlns:inkscape="http://www.inkscape.org/namespaces/inkscape"
   xmlns:sodipodi="http://sodipodi.sourceforge.net/DTD/sodipodi-0.dtd"
   xmlns="http://www.w3.org/2000/svg"
   xmlns:svg="http://www.w3.org/2000/svg">
  <sodipodi:namedview
     id="namedview7"
     pagecolor="#ffffff"
     bordercolor="#000000"
     borderopacity="0.25"
     inkscape:showpageshadow="2"
     inkscape:pageopacity="0.0"
     inkscape:pagecheckerboard="0"
     inkscape:deskcolor="#d1d1d1"
     inkscape:document-units="mm"
     showgrid="false"
     inkscape:zoom="1.6807341"
     inkscape:cx="343.30236"
     inkscape:cy="425.40934"
     inkscape:window-width="1920"
     inkscape:window-height="1051"
     inkscape:window-x="1920"
     inkscape:window-y="29"
     inkscape:window-maximized="0"
     inkscape:current-layer="layer1">
    <inkscape:grid
       type="xygrid"
       id="grid1426" />
  </sodipodi:namedview>
  <defs
     id="defs2">
    <inkscape:path-effect
       effect="spiro"
       id="path-effect6088"
       is_visible="true"
       lpeversion="1" />
    <inkscape:path-effect
       effect="spiro"
       id="path-effect5961"
       is_visible="true"
       lpeversion="1" />
    <inkscape:path-effect
       effect="spiro"
       id="path-effect5908"
       is_visible="true"
       lpeversion="1" />
    <inkscape:path-effect
       effect="spiro"
       id="path-effect5904"
       is_visible="true"
       lpeversion="1" />
    <inkscape:path-effect
       effect="spiro"
       id="path-effect5904-7"
       is_visible="true"
       lpeversion="1" />
    <inkscape:path-effect
       effect="spiro"
       id="path-effect5908-5"
       is_visible="true"
       lpeversion="1" />
    <inkscape:path-effect
       effect="spiro"
       id="path-effect5961-3"
       is_visible="true"
       lpeversion="1" />
    <inkscape:path-effect
       effect="spiro"
       id="path-effect6088-5"
       is_visible="true"
       lpeversion="1" />
  </defs>
  <g
     inkscape:label="Layer 1"
     inkscape:groupmode="layer"
     id="layer1">
    <rect
       style="fill:#090a11;stroke:#090a11;stroke-width:0.259177"
       id="rect1118"
       width="145.26166"
       height="18.352737"
       x="16.004589"
       y="10.712922"
       ry="3.2859612"
       inkscape:export-filename="palette-1.png"
       inkscape:export-xdpi="96"
       inkscape:export-ydpi="96" />
    <ellipse
       style="fill:#d1143d;stroke:#d1143d;stroke-width:0.264539"
       id="path1278"
       cx="40.896461"
       cy="19.725769"
       rx="6.2348776"
       ry="6.2370019" />
    <ellipse
       style="fill:#14cc4b;stroke:#14cc4b;stroke-width:0.264539"
       id="path1278-3"
       cx="56.8867"
       cy="19.694061"
       rx="6.2348776"
       ry="6.2370019" />
    <ellipse
       style="fill:#e56216;stroke:#e56216;stroke-width:0.264539"
       id="path1278-6"
       cx="152.09521"
       cy="19.59474"
       rx="6.2348776"
       ry="6.2370019" />
    <ellipse
       style="fill:#1861f4;stroke:#1861f4;stroke-width:0.264539"
       id="path1278-7"
       cx="72.790741"
       cy="19.604116"
       rx="6.2348776"
       ry="6.2370019" />
    <ellipse
       style="fill:#ddab16;stroke:#ddab16;stroke-width:0.264539"
       id="path1278-62"
       cx="88.583046"
       cy="19.58654"
       rx="6.2348776"
       ry="6.2370019" />
    <ellipse
       style="fill:#ea2eb8;stroke:#ea2eb8;stroke-width:0.264539"
       id="path1278-9"
       cx="104.36563"
       cy="19.738857"
       rx="6.2348776"
       ry="6.2370019" />
    <ellipse
       style="fill:#732eea;stroke:#732eea;stroke-width:0.264539"
       id="path1278-1"
       cx="136.14787"
       cy="19.62537"
       rx="6.2348776"
       ry="6.2370019" />
    <ellipse
       style="fill:#14b0cc;stroke:#14b0cc;stroke-width:0.264539"
       id="path1278-2"
       cx="120.44126"
       cy="19.608526"
       rx="6.2348776"
       ry="6.2370019" />
    <ellipse
       style="fill:#d3dae8;stroke:#d3dae8;stroke-width:0.264539"
       id="path1278-70"
       cx="25.104046"
       cy="19.826235"
       rx="6.2348776"
       ry="6.2370019" />
    <rect
       style="fill:#090a11;stroke:#090a11;stroke-width:0.259177"
       id="rect1118-3"
       width="145.26166"
       height="18.352737"
       x="16.004589"
       y="28.969172"
       ry="3.1260762" />
    <ellipse
       style="fill:#d1536e;stroke:#d1536e;stroke-width:0.264539"
       id="path1278-61"
       cx="40.896458"
       cy="37.982021"
       rx="6.2348776"
       ry="6.2370019" />
    <ellipse
       style="fill:#59b274;stroke:#59b274;stroke-width:0.264539"
       id="path1278-3-06"
       cx="56.886696"
       cy="37.950306"
       rx="6.2348776"
       ry="6.2370019" />
    <ellipse
       style="fill:#e58e5b;stroke:#e58e5b;stroke-width:0.264539"
       id="path1278-6-32"
       cx="152.09521"
       cy="37.850979"
       rx="6.2348776"
       ry="6.2370019" />
    <ellipse
       style="fill:#7aa3f4;stroke:#7aa3f4;stroke-width:0.264539"
       id="path1278-7-0"
       cx="72.790749"
       cy="37.860355"
       rx="6.2348776"
       ry="6.2370019" />
    <ellipse
       style="fill:#ddc26e;stroke:#ddc26e;stroke-width:0.264539"
       id="path1278-62-61"
       cx="88.583054"
       cy="37.842785"
       rx="6.2348776"
       ry="6.2370019" />
    <ellipse
       style="fill:#ea75cb;stroke:#ea75cb;stroke-width:0.264539"
       id="path1278-9-5"
       cx="104.36562"
       cy="37.995106"
       rx="6.2348776"
       ry="6.2370019" />
    <ellipse
       style="fill:#9f71ea;stroke:#9f71ea;stroke-width:0.264539"
       id="path1278-1-5"
       cx="136.14787"
       cy="37.881626"
       rx="6.2348776"
       ry="6.2370019" />
    <ellipse
       style="fill:#51b9cc;stroke:#51b9cc;stroke-width:0.264539"
       id="path1278-2-4"
       cx="120.44127"
       cy="37.864765"
       rx="6.2348776"
       ry="6.2370019" />
    <ellipse
       style="fill:#aeb3bf;stroke:#aeb3bf;stroke-width:0.264539"
       id="path1278-70-7"
       cx="25.104042"
       cy="38.082485"
       rx="6.2348776"
       ry="6.2370019" />
    <rect
       style="fill:#252633;stroke:#252633;stroke-width:0.25905"
       id="rect1118-2"
       width="145.11855"
       height="18.352741"
       x="16.136475"
       y="77.387856"
       ry="3.4402192"
       rx="0"
       inkscape:export-filename="palette-2.png"
       inkscape:export-xdpi="96"
       inkscape:export-ydpi="96" />
    <ellipse
       style="fill:#d1143d;stroke:#d1143d;stroke-width:0.264408"
       id="path1278-0"
       cx="41.003819"
       cy="86.400711"
       rx="6.228735"
       ry="6.2370033" />
    <ellipse
       style="fill:#14cc4b;stroke:#14cc4b;stroke-width:0.264408"
       id="path1278-3-2"
       cx="56.978306"
       cy="86.369003"
       rx="6.228735"
       ry="6.2370033" />
    <ellipse
       style="fill:#e56216;stroke:#e56216;stroke-width:0.264408"
       id="path1278-6-3"
       cx="152.09302"
       cy="86.269669"
       rx="6.228735"
       ry="6.2370033" />
    <ellipse
       style="fill:#1861f4;stroke:#1861f4;stroke-width:0.264408"
       id="path1278-7-7"
       cx="72.866692"
       cy="86.279053"
       rx="6.228735"
       ry="6.2370033" />
    <ellipse
       style="fill:#ddab16;stroke:#ddab16;stroke-width:0.264408"
       id="path1278-62-5"
       cx="88.64344"
       cy="86.261475"
       rx="6.228735"
       ry="6.2370033" />
    <ellipse
       style="fill:#ea2eb8;stroke:#ea2eb8;stroke-width:0.264408"
       id="path1278-9-9"
       cx="104.41048"
       cy="86.413788"
       rx="6.228735"
       ry="6.2370033" />
    <ellipse
       style="fill:#732eea;stroke:#732eea;stroke-width:0.264408"
       id="path1278-1-2"
       cx="136.16141"
       cy="86.300308"
       rx="6.228735"
       ry="6.2370033" />
    <ellipse
       style="fill:#14b0cc;stroke:#14b0cc;stroke-width:0.264408"
       id="path1278-2-2"
       cx="120.47028"
       cy="86.283463"
       rx="6.228735"
       ry="6.2370033" />
    <ellipse
       style="fill:#d3dae8;stroke:#d3dae8;stroke-width:0.264408"
       id="path1278-70-8"
       cx="25.226963"
       cy="86.501175"
       rx="6.228735"
       ry="6.2370033" />
    <rect
       style="fill:#414259;stroke:#414259;stroke-width:0.259177"
       id="rect1118-97"
       width="145.26166"
       height="18.352615"
       x="16.004591"
       y="95.908752"
       ry="3.3699205" />
    <ellipse
       style="fill:#d1143d;stroke:#d1143d;stroke-width:0.264537"
       id="path1278-361"
       cx="40.896458"
       cy="104.92149"
       rx="6.2348776"
       ry="6.2369604" />
    <ellipse
       style="fill:#14cc4b;stroke:#14cc4b;stroke-width:0.264537"
       id="path1278-3-29"
       cx="56.8867"
       cy="104.88982"
       rx="6.2348776"
       ry="6.2369604" />
    <ellipse
       style="fill:#e56216;stroke:#e56216;stroke-width:0.264537"
       id="path1278-6-31"
       cx="152.09521"
       cy="104.7905"
       rx="6.2348776"
       ry="6.2369604" />
    <ellipse
       style="fill:#1861f4;stroke:#1861f4;stroke-width:0.264537"
       id="path1278-7-9"
       cx="72.790749"
       cy="104.79984"
       rx="6.2348776"
       ry="6.2369604" />
    <ellipse
       style="fill:#ddab16;stroke:#ddab16;stroke-width:0.264537"
       id="path1278-62-4"
       cx="88.583061"
       cy="104.78223"
       rx="6.2348776"
       ry="6.2369604" />
    <ellipse
       style="fill:#ea2eb8;stroke:#ea2eb8;stroke-width:0.264537"
       id="path1278-9-7"
       cx="104.36563"
       cy="104.93465"
       rx="6.2348776"
       ry="6.2369604" />
    <ellipse
       style="fill:#732eea;stroke:#732eea;stroke-width:0.264537"
       id="path1278-1-84"
       cx="136.14789"
       cy="104.82114"
       rx="6.2348776"
       ry="6.2369604" />
    <ellipse
       style="fill:#14b0cc;stroke:#14b0cc;stroke-width:0.264537"
       id="path1278-2-5"
       cx="120.44128"
       cy="104.80424"
       rx="6.2348776"
       ry="6.2369604" />
    <ellipse
       style="fill:#d3dae8;stroke:#d3dae8;stroke-width:0.264537"
       id="path1278-70-0"
       cx="25.104046"
       cy="105.02193"
       rx="6.2348776"
       ry="6.2369604" />
    <rect
       style="fill:#121319;stroke:#121319;stroke-width:0.259177"
       id="rect1118-9"
       width="145.26166"
       height="18.352615"
       x="16.004587"
       y="58.867088"
       ry="2.9541366" />
    <ellipse
       style="fill:#d1143d;stroke:#d1143d;stroke-width:0.264537"
       id="path1278-36"
       cx="40.896442"
       cy="67.879944"
       rx="6.2348776"
       ry="6.2369604" />
    <ellipse
       style="fill:#14cc4b;stroke:#14cc4b;stroke-width:0.264537"
       id="path1278-3-0"
       cx="56.886684"
       cy="67.848236"
       rx="6.2348776"
       ry="6.2369604" />
    <ellipse
       style="fill:#e56216;stroke:#e56216;stroke-width:0.264537"
       id="path1278-6-6"
       cx="152.09521"
       cy="67.748917"
       rx="6.2348776"
       ry="6.2369604" />
    <ellipse
       style="fill:#1861f4;stroke:#1861f4;stroke-width:0.264537"
       id="path1278-7-2"
       cx="72.790741"
       cy="67.758286"
       rx="6.2348776"
       ry="6.2369604" />
    <ellipse
       style="fill:#ddab16;stroke:#ddab16;stroke-width:0.264537"
       id="path1278-62-6"
       cx="88.583054"
       cy="67.740723"
       rx="6.2348776"
       ry="6.2369604" />
    <ellipse
       style="fill:#ea2eb8;stroke:#ea2eb8;stroke-width:0.264537"
       id="path1278-9-1"
       cx="104.36562"
       cy="67.893036"
       rx="6.2348776"
       ry="6.2369604" />
    <ellipse
       style="fill:#732eea;stroke:#732eea;stroke-width:0.264537"
       id="path1278-1-8"
       cx="136.14787"
       cy="67.779541"
       rx="6.2348776"
       ry="6.2369604" />
    <ellipse
       style="fill:#14b0cc;stroke:#14b0cc;stroke-width:0.264537"
       id="path1278-2-7"
       cx="120.44126"
       cy="67.762695"
       rx="6.2348776"
       ry="6.2369604" />
    <ellipse
       style="fill:#d3dae8;stroke:#d3dae8;stroke-width:0.264537"
       id="path1278-70-9"
       cx="25.104031"
       cy="67.980408"
       rx="6.2348776"
       ry="6.2369604" />
    <circle
       style="fill:#090a11;stroke:#090a11;stroke-width:0.264583"
       id="path510"
       cx="40.484695"
       cy="155.22763"
       r="22.026592"
       inkscape:export-filename="logo.png"
       inkscape:export-xdpi="96"
       inkscape:export-ydpi="96" />
    <path
       id="path5902"
       style="fill:#1861f4;stroke:#1861f4;stroke-width:0.264583"
       d="m 57.603514,151.24683 c -0.370455,-0.004 -0.741558,0.0898 -1.050584,0.29197 -0.390888,0.25569 -0.664103,0.67311 -0.780314,1.12551 -0.116216,0.4524 -0.08195,0.93632 0.05839,1.38183 0.280683,0.89101 0.956344,1.60019 1.669154,2.204 0.7128,0.60381 1.49069,1.14401 2.09031,1.86035 0.29981,0.35817 0.55284,0.76003 0.70693,1.20096 0.15405,0.44094 0.20605,0.92274 0.10955,1.37976 -0.077,0.36483 -0.24768,0.70817 -0.48369,0.99684 -0.236,0.28868 -0.53656,0.52296 -0.86919,0.69143 -0.66529,0.3369 -1.44792,0.4041 -2.181267,0.26872 -0.733345,-0.13538 -1.420513,-0.46388 -2.039669,-0.87953 -0.619155,-0.41566 -1.175251,-0.91763 -1.717208,-1.42989 -1.083911,-1.02451 -2.166858,-2.12744 -3.562056,-2.65462 -0.697599,-0.26355 -1.465999,-0.37036 -2.196765,-0.22169 -0.730767,0.14867 -1.418413,0.5682 -1.817977,1.19786 -0.239554,0.37751 -0.371008,0.81869 -0.410828,1.26401 -0.03982,0.44532 0.0095,0.89527 0.111105,1.33066 0.203226,0.8708 0.610605,1.67764 0.952913,2.50373 1.031148,2.48844 1.479875,5.1777 2.352311,7.72614 0.419584,1.22562 0.941087,2.42374 1.651579,3.50625 a 22.026592,22.026592 0 0 0 12.198222,-17.62838 c -0.5164,-0.98158 -1.03656,-1.9614 -1.52394,-2.95745 -0.4328,-0.8845 -0.85992,-1.80901 -1.59938,-2.45928 -0.36974,-0.32513 -0.81565,-0.57281 -1.29967,-0.66301 -0.121,-0.0225 -0.24445,-0.0349 -0.36793,-0.0362 z" />
    <path
       id="path5906"
       style="fill:#ea2eb8;stroke:#ea2eb8;stroke-width:0.264583"
       d="m 36.286984,157.34775 c -0.128712,0.001 -0.258216,0.0194 -0.38344,0.0491 -0.250446,0.0593 -0.48774,0.16222 -0.726053,0.25942 -3.863108,1.57602 -8.118667,1.79565 -12.245765,2.4076 -1.25762,0.18647 -2.512752,0.4133 -3.744474,0.72554 a 22.026592,22.026592 0 0 0 5.766573,10.03608 c -0.05038,-0.38082 -0.09022,-0.76232 -0.105937,-1.14567 -0.03219,-0.78544 0.0388,-1.58522 0.31471,-2.3213 0.275906,-0.73608 0.769889,-1.40681 1.450041,-1.80093 0.460358,-0.26676 0.99348,-0.39972 1.525488,-0.40772 0.532007,-0.008 1.062867,0.10799 1.554427,0.31161 0.983121,0.40723 1.79253,1.15306 2.456181,1.98489 0.663651,0.83183 1.198957,1.75687 1.78387,2.64583 0.584915,0.88895 1.232065,1.75494 2.068091,2.41329 1.255415,0.98861 2.927953,1.44881 4.503084,1.17977 1.575131,-0.26905 3.019765,-1.28103 3.757394,-2.69854 0.368814,-0.70876 0.563468,-1.50844 0.552938,-2.30735 -0.01053,-0.7989 -0.227187,-1.59531 -0.629419,-2.28565 -0.402234,-0.69034 -0.989975,-1.27263 -1.688269,-1.66088 -0.698295,-0.38825 -1.505236,-0.58075 -2.303219,-0.54105 -0.717127,0.0357 -1.411936,0.25343 -2.092379,0.48265 -0.680442,0.22923 -1.362322,0.47338 -2.074292,0.56638 -0.71197,0.093 -1.468675,0.0227 -2.086177,-0.34365 -0.308751,-0.18319 -0.576728,-0.4394 -0.75706,-0.74983 -0.18033,-0.31043 -0.270054,-0.67581 -0.234094,-1.03301 0.03457,-0.34338 0.183364,-0.66953 0.393774,-0.94309 0.210409,-0.27355 0.480405,-0.49679 0.771529,-0.68213 0.582252,-0.37068 1.24571,-0.59342 1.854151,-0.91933 0.304219,-0.16296 0.596423,-0.35325 0.845426,-0.59221 0.249002,-0.23896 0.453843,-0.5288 0.564307,-0.85576 0.110465,-0.32696 0.12204,-0.6921 0,-1.01492 -0.12204,-0.32281 -0.383968,-0.59691 -0.712101,-0.70384 -0.122359,-0.0397 -0.250594,-0.0563 -0.379305,-0.0553 z" />
    <path
       id="path5959"
       style="fill:#d1143d;stroke:#d1143d;stroke-width:0.264583"
       d="m 40.48466,133.2009 a 22.026592,22.026592 0 0 0 -4.79919,0.5333 c 0.01669,0.0214 0.0323,0.0437 0.04961,0.0646 0.364211,0.44069 0.855824,0.7655 1.385445,0.98082 0.529623,0.21531 1.097468,0.32517 1.666565,0.37982 1.138196,0.10928 2.29122,0.003 3.425631,0.14676 0.567204,0.0717 1.130636,0.20708 1.646411,0.45372 0.515776,0.24665 0.983203,0.60895 1.30638,1.08055 0.323179,0.47161 0.493973,1.05656 0.42168,1.62368 -0.03615,0.28357 -0.132256,0.55985 -0.285771,0.80098 -0.153514,0.24114 -0.364834,0.44627 -0.613916,0.58653 -0.453496,0.25537 -1.004584,0.28375 -1.518253,0.19999 -0.513671,-0.0837 -1.003643,-0.27085 -1.500167,-0.42685 -0.496525,-0.156 -1.014127,-0.28268 -1.532723,-0.23875 -0.259299,0.022 -0.516739,0.0874 -0.747758,0.20723 -0.231018,0.11979 -0.435164,0.295 -0.574642,0.51469 -0.217786,0.34303 -0.264666,0.78291 -0.152962,1.17358 0.111704,0.39067 0.373924,0.73072 0.706417,0.96428 0.332493,0.23355 0.731936,0.36385 1.136364,0.40307 0.40443,0.0392 0.814469,-0.0103 1.207679,-0.11265 0.786418,-0.20482 1.499843,-0.6154 2.22622,-0.97979 0.726378,-0.36438 1.498969,-0.69162 2.311487,-0.70641 1.006518,-0.0183 1.967811,0.44924 2.764173,1.06505 0.796361,0.61581 1.463039,1.37995 2.18798,2.07843 0.977301,0.94162 2.084658,1.77743 3.352767,2.26084 1.268107,0.48341 2.7137,0.59004 3.978568,0.0982 0.60312,-0.23451 1.15122,-0.60098 1.61179,-1.05626 A 22.026592,22.026592 0 0 0 40.48466,133.2009 Z" />
    <path
       id="path6086"
       style="fill:#14cc4b;stroke:#14cc4b;stroke-width:0.264583"
       d="m 25.674195,138.93389 a 22.026592,22.026592 0 0 0 -7.216097,16.29357 22.026592,22.026592 0 0 0 0.03772,1.01028 c 0.960279,0.41643 2.028496,0.58775 3.066997,0.46044 1.143268,-0.14016 2.244686,-0.6457 3.072164,-1.44694 0.827476,-0.80125 1.371271,-1.89762 1.474845,-3.04478 0.05974,-0.6616 -0.02197,-1.33613 0.10852,-1.98747 0.06525,-0.32568 0.185521,-0.64486 0.387574,-0.90848 0.202053,-0.26362 0.490985,-0.46825 0.817004,-0.53175 0.290939,-0.0567 0.598467,0.002 0.861446,0.1385 0.26298,0.13674 0.482813,0.34842 0.652157,0.59169 0.338687,0.48654 0.474547,1.08186 0.596863,1.66191 0.122314,0.58006 0.243613,1.17587 0.559655,1.67742 0.158021,0.25077 0.364567,0.47442 0.617534,0.6289 0.252965,0.15444 0.554139,0.23703 0.849044,0.20723 0.240119,-0.0243 0.470038,-0.12207 0.664042,-0.26562 0.194003,-0.14356 0.352862,-0.33189 0.47594,-0.5395 0.246154,-0.4152 0.348453,-0.89846 0.421163,-1.37563 0.07271,-0.47718 0.120256,-0.96213 0.271301,-1.42058 0.151045,-0.45844 0.420755,-0.89773 0.836124,-1.1436 0.402165,-0.23806 0.907238,-0.26847 1.35599,-0.13798 0.448753,0.13049 0.844061,0.41037 1.16582,0.74931 0.643521,0.67787 1.001176,1.57043 1.505335,2.35748 0.784283,1.22436 1.951663,2.20468 3.305224,2.73575 1.353561,0.53106 2.887373,0.60495 4.276742,0.17621 1.389369,-0.42872 2.621999,-1.36249 3.384806,-2.60035 0.762807,-1.23785 1.042663,-2.77134 0.735356,-4.19251 -0.131142,-0.60648 -0.367253,-1.1934 -0.720886,-1.70326 -0.353635,-0.50986 -0.827013,-0.94072 -1.383895,-1.21439 -0.556883,-0.2736 -1.197642,-0.38563 -1.809709,-0.28371 -0.612066,0.10192 -1.190883,0.4231 -1.576131,0.90951 -0.253203,0.31969 -0.419015,0.69981 -0.552421,1.0852 -0.133407,0.38538 -0.237534,0.78087 -0.383439,1.16169 -0.145905,0.38082 -0.336891,0.75095 -0.620117,1.04438 -0.283228,0.29342 -0.667778,0.5047 -1.075387,0.5178 -0.260298,0.008 -0.520257,-0.064 -0.747241,-0.19172 -0.226984,-0.12768 -0.421545,-0.30928 -0.578259,-0.51728 -0.313431,-0.41601 -0.473102,-0.92727 -0.584461,-1.43609 -0.11136,-0.50881 -0.180604,-1.02824 -0.340548,-1.52394 -0.159944,-0.49569 -0.423033,-0.97721 -0.842325,-1.28623 -0.410156,-0.30229 -0.937933,-0.41337 -1.44694,-0.39067 -0.509008,0.0227 -1.004678,0.16985 -1.483631,0.34365 -0.478952,0.1738 -0.948391,0.37551 -1.438672,0.51418 -0.490279,0.13868 -1.008585,0.21317 -1.510502,0.12557 -0.517909,-0.0904 -0.996191,-0.35131 -1.39578,-0.69298 -0.39959,-0.34167 -0.725049,-0.76241 -1.010275,-1.20406 -0.570453,-0.88331 -0.997448,-1.86763 -1.696537,-2.65307 -0.643403,-0.72288 -1.499015,-1.2464 -2.423108,-1.53375 -0.217747,-0.0677 -0.43923,-0.12184 -0.663008,-0.16433 z" />
  </g>
</svg>
